<svg xmlns="http://www.w3.org/2000/svg" width="390" height="965" viewBox="0 0 390 965"><defs><pattern id="dots" width="20" height="20" patternUnits="userSpaceOnUse"><circle cx="1" cy="1" r="1" fill="#384355"/></pattern><marker id="arrow" markerWidth="8" markerHeight="8" refX="7" refY="4" orient="auto"><path d="M0 0L8 4L0 8" fill="#b8c6da"/></marker></defs><rect width="390" height="965" fill="#171f2c"/><rect width="390" height="965" fill="url(#dots)"/>
<g fill="none" stroke="#b8c6da" stroke-width="2.2" marker-end="url(#arrow)"><path d="M145 103C190 103 160 183 180 222"/><path d="M245 103C200 103 230 183 210 222"/><path d="M165 302C113 321 101 366 99 413"/><path d="M225 302C277 321 289 366 291 413"/><path d="M45 470C15 505 18 570 172 608"/><path d="M345 470C375 505 372 570 218 608"/><path d="M245 660C310 680 315 770 230 797"/></g>
<g fill="white" stroke="#97a8c1" stroke-width="1.6"><rect x="45" y="55" width="100" height="100" rx="18"/><rect x="245" y="55" width="100" height="100" rx="18"/><rect x="145" y="225" width="100" height="100" rx="18"/><rect x="45" y="415" width="100" height="100" rx="18"/><rect x="245" y="415" width="100" height="100" rx="18"/><rect x="145" y="610" width="100" height="100" rx="18"/><rect x="145" y="800" width="100" height="100" rx="18"/></g>
<g fill="none" stroke="#496ac7" stroke-width="3.8" stroke-linejoin="round" stroke-linecap="round"><rect x="69" y="80" width="53" height="48" rx="4"/><path d="M69 94H122M82 94V128M90 105H112M90 116H112"/><path d="M275 82H315V130H275ZM283 94H307M283 106H307M283 118H299"/><circle cx="190" cy="270" r="19"/><path d="M205 284L222 301M180 270L188 278L201 263"/><path d="M71 442H116V489H71ZM79 454H109M79 466H109M79 478H102"/><circle cx="295" cy="460" r="23"/><path d="M279 452Q295 434 311 452M279 468Q295 486 311 468M284 443L307 477M307 443L284 477"/><circle cx="195" cy="642" r="11"/><path d="M174 681V675Q174 659 195 659Q216 659 216 675V681M217 676L224 683L237 667"/><path d="M174 824H206L217 835V881H174ZM205 824V835H217M183 849H207M183 860H207M183 871H200"/></g>
<g font-family="Segoe UI,Arial,sans-serif" font-size="18" fill="#e0e8f5" text-anchor="middle"><text x="95" y="183">Inventory</text><text x="295" y="183">Sources</text><text x="195" y="353">Lookup</text><text x="95" y="543">Template</text><text x="295" y="543">Qwen</text><text x="195" y="738">Review</text><text x="195" y="928">Receipt</text></g></svg>
